<svg width="328" height="61" viewBox="0 0 328 61" fill="none" xmlns="http://www.w3.org/2000/svg">
<path fill-rule="evenodd" clip-rule="evenodd" d="M58.6263 12.9905C51.3273 5.16574 40.9356 0.279144 29.4304 0.279144C17.9253 0.279144 7.50258 5.16574 0.234538 12.9905C0.172682 13.9183 0.141754 14.8771 0.141754 15.8358C0.141754 35.7534 12.2036 52.8874 29.4304 60.2791C46.6572 52.8874 58.7191 35.7534 58.7191 15.8358C58.7191 14.2585 58.7191 13.9492 58.6263 12.9905Z" fill="url(#paint0_radial_5_4940)"/>
<path d="M49.6572 43.9802L0.234538 12.9596C0.172682 13.8874 0.141754 14.8462 0.141754 15.8049C0.141754 35.7225 12.2036 52.8565 29.4304 60.2482C37.5644 56.7534 44.5541 51.0936 49.6572 43.9802Z" fill="url(#paint1_radial_5_4940)"/>
<path fill-rule="evenodd" clip-rule="evenodd" d="M0.141754 12.8977C55.4716 49.6709 29.4304 60.2482 29.4304 60.2482C43.1005 54.4028 48.8222 44.6296 49.6572 43.9802L0.141754 12.8977Z" fill="#E9AACA"/>
<path fill-rule="evenodd" clip-rule="evenodd" d="M20.0902 1.39255C18.8531 1.76368 9.42012 3.43379 0.234558 12.9905L49.7191 44.073C49.7191 44.073 0.76033 7.85647 38.7397 1.39255C32.9871 0.155437 27.0799 0.0626538 21.2964 1.14513L20.0902 1.39255Z" fill="#0B5FB5"/>
<path d="M88.5025 19.2688C88.5025 20.6915 88.9046 21.8049 89.7396 22.7018C90.5747 23.5678 91.6572 24.3101 93.0489 24.8668C94.4097 25.4544 95.9871 25.9183 97.7499 26.2894C99.5128 26.6606 101.307 27.0317 103.131 27.4338C104.956 27.8358 106.75 28.2998 108.513 28.8255C110.276 29.3513 111.853 30.0936 113.214 30.9595C114.575 31.8565 115.688 32.9699 116.523 34.3616C117.358 35.7534 117.76 37.4544 117.76 39.5266C117.76 41.5987 117.234 43.64 116.214 45.3101C115.193 46.9802 113.74 48.3719 111.853 49.4853C109.966 50.5987 107.771 51.4338 105.234 51.9905C102.698 52.5472 99.884 52.8255 96.8221 52.8255C93.7603 52.8255 88.8118 52.0833 85.6572 50.6606C82.4716 49.207 79.9046 47.3204 77.9252 45.0008L81.9149 42.8977C83.5231 44.6915 85.5644 46.1142 88.0386 47.1657C90.5128 48.2173 93.5128 48.743 97.0386 48.743C100.564 48.743 100.874 48.5266 102.296 48.0936C103.719 47.6606 104.894 47.042 105.822 46.2998C106.75 45.5266 107.399 44.6296 107.801 43.5472C108.204 42.4956 108.42 41.3513 108.42 40.0833C108.42 38.8152 108.018 37.5162 107.183 36.5575C106.348 35.6297 105.265 34.8565 103.874 34.2379C102.482 33.6193 100.936 33.0936 99.1726 32.6606C97.4097 32.2276 95.6159 31.7946 93.8221 31.3925C92.0283 30.9905 90.2345 30.5266 88.4716 30.0317C86.7087 29.5369 85.1314 28.8874 83.7706 28.1142C82.4097 27.3101 81.2963 26.3513 80.4613 25.207C79.6262 24.0626 79.2242 22.609 79.2242 20.8461C79.2242 19.0833 79.6881 17.5059 80.6159 16.0833C81.5438 14.6606 82.8427 13.4235 84.5128 12.3719C86.1829 11.3513 88.1314 10.5162 90.3891 9.95955C92.6468 9.37192 95.0902 9.09357 97.7499 9.09357C100.41 9.09357 104.338 9.77398 107.307 11.1348C110.276 12.4956 112.781 14.5678 114.791 17.2894L111.049 19.207C109.503 16.8565 107.585 15.1863 105.296 14.2276C103.008 13.2688 100.472 12.8049 97.7499 12.8049C95.0283 12.8049 95.1211 12.9905 94.0077 13.3307C92.8943 13.6709 91.9355 14.1657 91.1005 14.7534C90.2963 15.3719 89.6469 16.0523 89.2139 16.7946C88.7499 17.5678 88.5334 18.3719 88.5334 19.2379L88.5025 19.2688Z" fill="#231F20"/>
<path d="M153.729 51.9905H145.657V49.9493C144.698 50.8152 143.523 51.5266 142.07 52.0523C140.647 52.5781 138.915 52.8565 136.936 52.8565C134.956 52.8565 132.698 52.4853 130.812 51.7121C128.925 50.9389 127.286 49.8874 125.925 48.5266C124.564 47.1658 123.482 45.5575 122.709 43.7018C121.936 41.8462 121.564 39.774 121.564 37.5472C121.564 35.3204 121.966 33.2482 122.802 31.3926C123.637 29.5369 124.75 27.9286 126.204 26.5678C127.657 25.207 129.296 24.1864 131.214 23.4132C133.131 22.6709 135.142 22.2998 137.245 22.2998C139.348 22.2998 139.843 22.5472 141.389 23.0111C142.936 23.475 144.358 24.4029 145.657 25.7328V23.1348H153.729V51.9905ZM145.533 39.8049C145.564 39.5266 145.626 39.0936 145.657 38.5678C145.688 38.042 145.657 37.1451 145.595 35.9699C145.503 34.0524 145.193 32.4441 144.667 31.1142C144.111 29.7843 143.492 28.7018 142.75 27.8668C142.008 27.0317 141.204 26.4441 140.369 26.073C139.503 25.7018 138.729 25.5163 137.987 25.5163C135.637 25.5163 133.812 26.506 132.606 28.4853C131.369 30.4647 130.626 33.0936 130.348 36.4029C130.348 36.5266 130.348 36.7431 130.317 37.0833C130.286 37.4235 130.286 37.7637 130.286 38.1348C130.286 38.506 130.286 38.8462 130.317 39.1554C130.317 39.4647 130.348 39.6812 130.348 39.8049C130.688 43.4235 131.523 46.0833 132.853 47.8152C134.183 49.5472 136.131 50.1658 138.606 49.7018C140.338 49.4235 141.853 48.4338 143.152 46.7946C144.42 45.1245 145.255 42.8049 145.564 39.8359L145.533 39.8049Z" fill="#231F20"/>
<path d="M175.008 11.5678C172.688 11.3204 170.894 11.7534 169.626 12.8668C168.358 13.9802 167.74 15.8049 167.74 18.2791V23.1348H173.276V26.8771H167.678V52.0214H159.575V26.8771H155.647V23.1348H159.575V19.3307C159.575 17.5987 159.915 15.9905 160.595 14.5678C161.276 13.1451 162.265 11.9389 163.595 10.9802C164.894 10.0214 166.503 9.31007 168.42 8.87708C170.338 8.41316 172.533 8.28945 175.008 8.50595V11.5678Z" fill="#231F20"/>
<path d="M207.791 40.2998H184.843C184.843 43.207 185.523 45.5266 186.853 47.2276C188.214 48.9596 190.039 49.8255 192.358 49.8255C194.678 49.8255 196.472 49.3616 197.956 48.4029C199.441 47.4441 200.771 46.0214 201.946 44.1039L205.564 46.4544C204.791 47.4441 203.956 48.341 203.09 49.1142C202.224 49.9183 201.265 50.5678 200.214 51.1245C199.162 51.6812 197.987 52.1142 196.688 52.3925C195.389 52.6709 193.966 52.8255 192.389 52.8255C190.812 52.8255 188.338 52.5472 186.327 51.9596C184.317 51.3719 182.523 50.475 180.977 49.207C179.43 47.9699 178.162 46.3925 177.173 44.4441C176.183 42.5266 175.719 40.2379 175.719 37.5781C175.719 34.9183 176.152 33.4028 177.018 31.5472C177.884 29.6915 179.059 28.0523 180.544 26.6915C182.028 25.3307 183.729 24.2482 185.647 23.4441C187.564 22.64 189.606 22.2688 191.771 22.2688C193.936 22.2688 195.977 22.6709 197.925 23.4441C199.874 24.2482 201.575 25.2998 203.028 26.6915C204.482 28.0833 205.657 29.6915 206.523 31.5472C207.389 33.4028 207.822 35.4132 207.822 37.5781V40.2379V40.2998H207.791ZM198.729 36.9286C198.729 33.0008 198.08 30.0626 196.781 28.176C195.482 26.2894 193.812 25.3307 191.771 25.3307C189.729 25.3307 188.121 26.2894 186.791 28.176C185.461 30.0626 184.812 32.9699 184.812 36.9286H198.76H198.729Z" fill="#231F20"/>
<path d="M220.348 51.9905H212.214V9.86676H229.688C232.812 9.86676 235.503 10.1451 237.791 10.7327C240.08 11.3204 241.936 12.1245 243.42 13.207C244.905 14.2894 245.987 15.5266 246.698 16.9802C247.41 18.4338 247.75 20.042 247.75 21.774C247.75 23.5059 247.379 25.1142 246.668 26.5678C245.956 28.0214 244.843 29.2894 243.358 30.341C241.874 31.3925 240.018 32.2276 237.76 32.7843C235.503 33.3719 232.812 33.6503 229.719 33.6503H220.379V51.9905H220.348ZM228.204 29.908C232.101 29.908 234.946 29.1657 236.802 27.7121C238.626 26.2276 239.523 24.2482 239.523 21.774C239.523 19.2997 239.338 19.4235 238.997 18.4028C238.657 17.3822 238.039 16.5472 237.204 15.8358C236.338 15.1245 235.193 14.5678 233.74 14.1967C232.286 13.8255 230.43 13.64 228.204 13.64H220.379V29.9389H228.204V29.908Z" fill="#0B5FB5"/>
<path d="M282.884 51.9905H274.224V36.5575C274.224 32.5678 273.667 29.7534 272.523 28.0833C271.379 26.4132 269.647 25.5472 267.265 25.5472C264.884 25.5472 265.008 25.7946 264.111 26.3204C263.214 26.8461 262.472 27.4956 261.915 28.2997C261.327 29.1039 260.925 30.0317 260.647 31.0523C260.369 32.0729 260.245 33.0936 260.245 34.1142V51.9595H252.111V9.86676H260.245V26.6606C260.492 26.0729 260.894 25.5472 261.451 25.0523C262.008 24.5575 262.626 24.0936 263.338 23.7224C264.049 23.3204 264.822 23.0111 265.657 22.7637C266.523 22.5162 267.327 22.3616 268.1 22.3307C271.348 22.1142 273.915 22.4544 275.863 23.3513C277.812 24.2482 279.296 25.4235 280.348 26.908C281.369 28.3925 282.049 30.0317 282.358 31.8564C282.667 33.6812 282.822 35.475 282.822 37.207V52.0214H282.884V51.9905Z" fill="#0B5FB5"/>
<path d="M327.358 9.86676L309.637 51.9905H304.595L285.358 9.86676H294.265L309.637 42.8358L322.936 9.86676H327.358Z" fill="#0B5FB5"/>
<defs>
<radialGradient id="paint0_radial_5_4940" cx="0" cy="0" r="1" gradientUnits="userSpaceOnUse" gradientTransform="translate(18.6675 40.3925) scale(57.6804 57.6804)">
<stop stop-color="#88C8EF"/>
<stop offset="0.5" stop-color="#2997D5"/>
<stop offset="1" stop-color="#324399"/>
</radialGradient>
<radialGradient id="paint1_radial_5_4940" cx="0" cy="0" r="1" gradientUnits="userSpaceOnUse" gradientTransform="translate(3.6366 64.5163) scale(44.134)">
<stop stop-color="#7E3690"/>
<stop offset="0.4" stop-color="#C53E91"/>
<stop offset="0.6" stop-color="#DB65A2"/>
<stop offset="1" stop-color="#E9AACA"/>
</radialGradient>
</defs>
</svg>
