<svg width="196" height="210" viewBox="0 0 196 210" fill="none" xmlns="http://www.w3.org/2000/svg">
<path fill-rule="evenodd" clip-rule="evenodd" d="M195.241 44.4897C170.875 17.1031 136.184 0 97.7756 0C59.3674 0 24.573 17.1031 0.309743 44.4897C0.103248 47.7371 0 51.0928 0 54.4485C0 124.16 40.2666 184.129 97.7756 210C155.285 184.129 195.551 124.16 195.551 54.4485C195.551 48.9278 195.551 47.8454 195.241 44.4897Z" fill="url(#paint0_radial_204_3320)"/>
<path d="M165.3 152.954L0.309743 44.3814C0.103248 47.6289 0 50.9845 0 54.3402C0 124.052 40.2666 184.021 97.7756 209.892C124.93 197.66 148.264 177.851 165.3 152.954Z" fill="url(#paint1_radial_204_3320)"/>
<path fill-rule="evenodd" clip-rule="evenodd" d="M0 44.1649C184.71 172.871 97.7756 209.892 97.7756 209.892C143.411 189.433 162.512 155.227 165.3 152.954L0 44.1649Z" fill="#E9AACA"/>
<path fill-rule="evenodd" clip-rule="evenodd" d="M66.5948 3.89689C62.4649 5.19586 30.9744 11.0412 0.309814 44.4897L165.506 153.278C165.506 153.278 2.06502 26.5206 128.853 3.89689C109.649 -0.433005 89.9288 -0.757747 70.6215 3.03091L66.5948 3.89689Z" fill="#0B5FB5"/>
<defs>
<radialGradient id="paint0_radial_204_3320" cx="0" cy="0" r="1" gradientUnits="userSpaceOnUse" gradientTransform="translate(61.8454 140.397) scale(192.557 201.881)">
<stop stop-color="#88C8EF"/>
<stop offset="0.5" stop-color="#2997D5"/>
<stop offset="1" stop-color="#324399"/>
</radialGradient>
<radialGradient id="paint1_radial_204_3320" cx="0" cy="0" r="1" gradientUnits="userSpaceOnUse" gradientTransform="translate(11.667 224.83) scale(147.334 154.469)">
<stop stop-color="#7E3690"/>
<stop offset="0.4" stop-color="#C53E91"/>
<stop offset="0.6" stop-color="#DB65A2"/>
<stop offset="1" stop-color="#E9AACA"/>
</radialGradient>
</defs>
</svg>
