<svg width="24" height="23" viewBox="0 0 24 23" fill="none" xmlns="http://www.w3.org/2000/svg">
<path d="M11.0994 1.08387C11.3273 0.536058 12.1033 0.536059 12.3311 1.08387L15.0874 7.71063C15.1834 7.94157 15.4006 8.09937 15.6499 8.11936L22.8041 8.6929C23.3955 8.74031 23.6353 9.47837 23.1847 9.86435L17.734 14.5335C17.544 14.6962 17.4611 14.9515 17.5191 15.1948L19.1844 22.176C19.3221 22.7531 18.6942 23.2093 18.1879 22.9L12.063 19.1589C11.8495 19.0285 11.581 19.0285 11.3676 19.1589L5.24265 22.9C4.73632 23.2093 4.1085 22.7531 4.24616 22.176L5.91144 15.1948C5.96947 14.9515 5.88651 14.6962 5.69656 14.5335L0.245857 9.86435C-0.204736 9.47837 0.0350742 8.74031 0.626485 8.6929L7.78062 8.11936C8.02995 8.09937 8.24713 7.94157 8.34319 7.71063L11.0994 1.08387Z" fill="white"/>
</svg>
